<svg width="24" height="24" viewBox="0 0 24 24" fill="none" xmlns="http://www.w3.org/2000/svg">
<path fill-rule="evenodd" clip-rule="evenodd" d="M24 12C24 18.629 18.629 24 12 24C5.37097 24 0 18.629 0 12C0 5.37097 5.37097 0 12 0C18.629 0 24 5.37097 24 12ZM6.58065 9.67742C6.58065 10.5339 7.27257 11.2258 8.12903 11.2258C8.98549 11.2258 9.67742 10.5339 9.67742 9.67742C9.67742 8.82096 8.98549 8.12903 8.12903 8.12903C7.27257 8.12903 6.58065 8.82096 6.58065 9.67742ZM15.871 11.2258C15.0145 11.2258 14.3226 10.5339 14.3226 9.67742C14.3226 8.82096 15.0145 8.12903 15.871 8.12903C16.7274 8.12903 17.4194 8.82096 17.4194 9.67742C17.4194 10.5339 16.7274 11.2258 15.871 11.2258ZM7.35484 15.871C6.32902 15.871 6.32902 17.4194 7.35484 17.4194H16.6452C17.671 17.4194 17.671 15.871 16.6452 15.871H7.35484Z" fill="#C4CFDD"/>
</svg>
