<svg width="24" height="24" viewBox="0 0 24 24" fill="none" xmlns="http://www.w3.org/2000/svg">
<path id="&#239;&#132;&#153; copy" fill-rule="evenodd" clip-rule="evenodd" d="M24 12C24 18.629 18.629 24 12 24C5.37097 24 0 18.629 0 12C0 5.37097 5.37097 0 12 0C18.629 0 24 5.37097 24 12ZM14.3226 9.67742C14.3226 10.5339 15.0145 11.2258 15.871 11.2258C16.7274 11.2258 17.4194 10.5339 17.4194 9.67742C17.4194 8.82096 16.7274 8.12903 15.871 8.12903C15.0145 8.12903 14.3226 8.82096 14.3226 9.67742ZM8.12903 11.2258C7.27257 11.2258 6.58065 10.5339 6.58065 9.67742C6.58065 8.82096 7.27257 8.12903 8.12903 8.12903C8.98549 8.12903 9.67742 8.82096 9.67742 9.67742C9.67742 10.5339 8.98549 11.2258 8.12903 11.2258ZM12 16.6452C13.6887 16.6452 15.2806 17.3903 16.3645 18.6871C17.0178 19.4758 18.2081 18.4839 17.55 17.7C16.1758 16.0451 14.1484 15.0968 12 15.0968C9.85159 15.0968 7.8242 16.0451 6.44517 17.6952C5.79194 18.4839 6.98225 19.4758 7.63547 18.6871C8.71936 17.3903 10.3113 16.6452 12 16.6452Z" fill="#C4CFDD"/>
</svg>
