<svg width="24" height="24" viewBox="0 0 24 24" fill="none" xmlns="http://www.w3.org/2000/svg">
<path id="&#239;&#132;&#152; copy" fill-rule="evenodd" clip-rule="evenodd" d="M24 12C24 18.629 18.629 24 12 24C5.37097 24 0 18.629 0 12C0 5.37097 5.37097 0 12 0C18.629 0 24 5.37097 24 12ZM14.3226 9.67742C14.3226 10.5339 15.0145 11.2258 15.871 11.2258C16.7274 11.2258 17.4194 10.5339 17.4194 9.67742C17.4194 8.82096 16.7274 8.12903 15.871 8.12903C15.0145 8.12903 14.3226 8.82096 14.3226 9.67742ZM8.12903 11.2258C7.27257 11.2258 6.58065 10.5339 6.58065 9.67742C6.58065 8.82096 7.27257 8.12903 8.12903 8.12903C8.98549 8.12903 9.67742 8.82096 9.67742 9.67742C9.67742 10.5339 8.98549 11.2258 8.12903 11.2258ZM6.44517 16.3645C7.8242 18.0194 9.84677 18.9677 12 18.9677C14.1532 18.9677 16.1758 18.0194 17.5548 16.3645C18.2081 15.5758 17.0129 14.5887 16.3645 15.3726C15.2806 16.6694 13.6935 17.4145 12 17.4145C10.3065 17.4145 8.71936 16.6742 7.63547 15.3726C6.97743 14.5887 5.78708 15.5758 6.44517 16.3645Z" fill="#C4CFDD"/>
</svg>
